<svg width="16" height="16" viewBox="0 0 16 16" fill="none" xmlns="http://www.w3.org/2000/svg">
<path d="M10.36 7.52673L6.5867 3.76007C6.52472 3.69758 6.45099 3.64798 6.36975 3.61414C6.28851 3.58029 6.20137 3.56287 6.11336 3.56287C6.02535 3.56287 5.93822 3.58029 5.85698 3.61414C5.77574 3.64798 5.702 3.69758 5.64003 3.76007C5.51586 3.88497 5.44617 4.05394 5.44617 4.23007C5.44617 4.40619 5.51586 4.57516 5.64003 4.70007L8.94003 8.0334L5.64003 11.3334C5.51586 11.4583 5.44617 11.6273 5.44617 11.8034C5.44617 11.9795 5.51586 12.1485 5.64003 12.2734C5.70177 12.3364 5.7754 12.3865 5.85665 12.4208C5.9379 12.4552 6.02516 12.473 6.11336 12.4734C6.20157 12.473 6.28882 12.4552 6.37007 12.4208C6.45132 12.3865 6.52495 12.3364 6.5867 12.2734L10.36 8.50673C10.4277 8.4443 10.4817 8.36854 10.5186 8.2842C10.5556 8.19987 10.5747 8.1088 10.5747 8.01673C10.5747 7.92466 10.5556 7.83359 10.5186 7.74926C10.4817 7.66493 10.4277 7.58916 10.36 7.52673V7.52673Z" fill="#47C800"/>
</svg>
