<svg width="24" height="24" viewBox="0 0 24 24" fill="none" xmlns="http://www.w3.org/2000/svg">
<path d="M15.5401 11.29L9.8801 5.64004C9.78714 5.54631 9.67654 5.47191 9.55468 5.42115C9.43282 5.37038 9.30212 5.34424 9.1701 5.34424C9.03809 5.34424 8.90739 5.37038 8.78553 5.42115C8.66367 5.47191 8.55307 5.54631 8.4601 5.64004C8.27385 5.8274 8.16931 6.08085 8.16931 6.34504C8.16931 6.60922 8.27385 6.86267 8.4601 7.05004L13.4101 12.05L8.4601 17C8.27385 17.1874 8.16931 17.4408 8.16931 17.705C8.16931 17.9692 8.27385 18.2227 8.4601 18.41C8.55272 18.5045 8.66316 18.5797 8.78504 18.6312C8.90691 18.6827 9.0378 18.7095 9.1701 18.71C9.30241 18.7095 9.43329 18.6827 9.55517 18.6312C9.67704 18.5797 9.78749 18.5045 9.8801 18.41L15.5401 12.76C15.6416 12.6664 15.7226 12.5527 15.778 12.4262C15.8334 12.2997 15.862 12.1631 15.862 12.025C15.862 11.8869 15.8334 11.7503 15.778 11.6238C15.7226 11.4973 15.6416 11.3837 15.5401 11.29Z" fill="black"/>
</svg>
