<svg width="16" height="15" viewBox="0 0 16 15" fill="none" xmlns="http://www.w3.org/2000/svg">
<path fill-rule="evenodd" clip-rule="evenodd" d="M15.5 7.5C15.5 11.6421 12.1421 15 8 15C3.85786 15 0.5 11.6421 0.5 7.5C0.5 3.35786 3.85786 0 8 0C12.1421 0 15.5 3.35786 15.5 7.5ZM8 11.8125C8.31066 11.8125 8.5625 11.5607 8.5625 11.25V6.75C8.5625 6.43934 8.31066 6.1875 8 6.1875C7.68934 6.1875 7.4375 6.43934 7.4375 6.75V11.25C7.4375 11.5607 7.68934 11.8125 8 11.8125ZM8 3.75C8.41421 3.75 8.75 4.08579 8.75 4.5C8.75 4.91421 8.41421 5.25 8 5.25C7.58579 5.25 7.25 4.91421 7.25 4.5C7.25 4.08579 7.58579 3.75 8 3.75Z" fill="#879DAB"/>
</svg>
