<svg width="17" height="16" viewBox="0 0 17 16" fill="none" xmlns="http://www.w3.org/2000/svg">
<path d="M11.1869 6.68681C11.3822 6.49154 11.3822 6.17496 11.1869 5.9797C10.9916 5.78444 10.6751 5.78444 10.4798 5.9797L7.50001 8.95948L6.52023 7.9797C6.32497 7.78444 6.00839 7.78444 5.81312 7.9797C5.61786 8.17496 5.61786 8.49154 5.81312 8.68681L7.14646 10.0201C7.34172 10.2154 7.6583 10.2154 7.85356 10.0201L11.1869 6.68681Z" fill="white"/>
<path fill-rule="evenodd" clip-rule="evenodd" d="M8.50001 0.833252C4.54197 0.833252 1.33334 4.04188 1.33334 7.99992C1.33334 11.958 4.54197 15.1666 8.50001 15.1666C12.4581 15.1666 15.6667 11.958 15.6667 7.99992C15.6667 4.04188 12.4581 0.833252 8.50001 0.833252ZM2.33334 7.99992C2.33334 4.59416 5.09425 1.83325 8.50001 1.83325C11.9058 1.83325 14.6667 4.59416 14.6667 7.99992C14.6667 11.4057 11.9058 14.1666 8.50001 14.1666C5.09425 14.1666 2.33334 11.4057 2.33334 7.99992Z" fill="white"/>
<path d="M14.1667 4.33333L12.8333 3L11.5 2L8.83334 1L5.83334 2L3.50001 3.33333L2.16668 6L1.83334 9L2.83334 11.6667L5.83334 14.3333H8.16668L11.1667 14L13.1667 13L14.8333 10.6667L15.1667 6.33333L14.1667 4.33333Z" fill="white" fill-opacity="0.2"/>
</svg>
