<svg width="44" height="44" viewBox="0 0 44 44" fill="none" xmlns="http://www.w3.org/2000/svg">
<rect width="44" height="44" rx="22" fill="#F6F6F6"/>
<path fill-rule="evenodd" clip-rule="evenodd" d="M22 11.625C21.5858 11.625 21.25 11.9608 21.25 12.375V23.3476L19.5694 21.3869C19.2999 21.0724 18.8264 21.036 18.5119 21.3056C18.1974 21.5751 18.161 22.0486 18.4306 22.3631L21.4306 25.8631C21.573 26.0293 21.7811 26.125 22 26.125C22.2189 26.125 22.427 26.0293 22.5694 25.8631L25.5694 22.3631C25.839 22.0486 25.8026 21.5751 25.4881 21.3056C25.1736 21.036 24.7001 21.0724 24.4306 21.3869L22.75 23.3476L22.75 12.375C22.75 11.9608 22.4142 11.625 22 11.625Z" fill="black"/>
<path d="M24.25 19.375V19.7533C24.9836 19.4947 25.8312 19.6241 26.4642 20.1667C27.4077 20.9754 27.517 22.3958 26.7083 23.3393L23.7083 26.8393C23.2808 27.338 22.6568 27.625 22 27.625C21.3431 27.625 20.7191 27.338 20.2916 26.8393L17.2916 23.3393C16.4829 22.3958 16.5922 20.9754 17.5357 20.1667C18.1687 19.6241 19.0164 19.4947 19.75 19.7533V19.375H18C15.1716 19.375 13.7574 19.375 12.8787 20.2537C12 21.1324 12 22.5466 12 25.375V26.375C12 29.2034 12 30.6176 12.8787 31.4963C13.7574 32.375 15.1716 32.375 18 32.375H26C28.8284 32.375 30.2426 32.375 31.1213 31.4963C32 30.6176 32 29.2034 32 26.375V25.375C32 22.5466 32 21.1324 31.1213 20.2537C30.2426 19.375 28.8284 19.375 26 19.375H24.25Z" fill="black"/>
</svg>
