<svg width="41" height="41" viewBox="0 0 41 41" fill="none" xmlns="http://www.w3.org/2000/svg">
<rect width="41" height="41" rx="20.5" fill="#F6F6F6"/>
<path d="M19.1621 25.9563C19.4008 25.7702 19.6172 25.5537 20.0501 25.1209L25.597 19.574C24.842 19.2598 23.9479 18.7437 23.1022 17.898C22.2565 17.0522 21.7403 16.1579 21.4261 15.4029L15.8791 20.9499L15.8791 20.95C15.4462 21.3828 15.2298 21.5992 15.0437 21.8379C14.8241 22.1194 14.6359 22.424 14.4823 22.7463C14.352 23.0195 14.2553 23.3099 14.0617 23.8906L13.0408 26.9531C12.9456 27.2389 13.02 27.554 13.233 27.767C13.446 27.98 13.7611 28.0544 14.0469 27.9592L17.1094 26.9383C17.6901 26.7447 17.9805 26.6479 18.2537 26.5177C18.576 26.3641 18.8806 26.1759 19.1621 25.9563Z" fill="black"/>
<path d="M27.1362 18.0348C28.2879 16.883 28.2879 15.0156 27.1362 13.8638C25.9844 12.7121 24.117 12.7121 22.9652 13.8638L22.2999 14.5291C22.309 14.5566 22.3185 14.5845 22.3283 14.6128C22.5721 15.3156 23.0322 16.237 23.8977 17.1025C24.7632 17.968 25.6846 18.4281 26.3875 18.672C26.4156 18.6817 26.4434 18.6911 26.4708 18.7002L27.1362 18.0348Z" fill="black"/>
</svg>
